<?xml version="1.0" encoding="UTF-8" standalone="no"?>
<!-- Created with Inkscape (http://www.inkscape.org/) -->

<svg
   xmlns:dc="http://purl.org/dc/elements/1.1/"
   xmlns:cc="http://creativecommons.org/ns#"
   xmlns:rdf="http://www.w3.org/1999/02/22-rdf-syntax-ns#"
   xmlns:svg="http://www.w3.org/2000/svg"
   xmlns="http://www.w3.org/2000/svg"
   xmlns:sodipodi="http://sodipodi.sourceforge.net/DTD/sodipodi-0.dtd"
   xmlns:inkscape="http://www.inkscape.org/namespaces/inkscape"
   id="svg2"
   version="1.1"
   inkscape:version="0.91 r13725"
   width="300"
   height="300"
   viewBox="0 0 300 300"
   sodipodi:docname="rental2.svg">
  <metadata
     id="metadata8">
    <rdf:RDF>
      <cc:Work
         rdf:about="">
        <dc:format>image/svg+xml</dc:format>
        <dc:type
           rdf:resource="http://purl.org/dc/dcmitype/StillImage" />
        <dc:title></dc:title>
      </cc:Work>
    </rdf:RDF>
  </metadata>
  <defs
     id="defs6" />
  <sodipodi:namedview
     pagecolor="#d9d6d6"
     bordercolor="#666666"
     borderopacity="1"
     objecttolerance="10"
     gridtolerance="10"
     guidetolerance="10"
     inkscape:pageopacity="0"
     inkscape:pageshadow="2"
     inkscape:window-width="1366"
     inkscape:window-height="705"
     id="namedview4"
     showgrid="false"
     showborder="false"
     inkscape:showpageshadow="false"
     fit-margin-top="0"
     fit-margin-left="0"
     fit-margin-right="0"
     fit-margin-bottom="0"
     inkscape:zoom="3.3211028"
     inkscape:cx="165.55719"
     inkscape:cy="181.46701"
     inkscape:window-x="-8"
     inkscape:window-y="-8"
     inkscape:window-maximized="1"
     inkscape:current-layer="g4138" />
  <g
     id="g2987"
     transform="translate(32.738453,-37.822987)">
    <g
       id="g4138">
      <circle
         r="142.02753"
         cy="187.82298"
         cx="117.26154"
         id="path3775"
         style="fill:#ffffff;fill-opacity:1;fill-rule:evenodd;stroke:#7bb7fa;stroke-width:15.94493866;stroke-linecap:square;stroke-linejoin:miter;stroke-miterlimit:4;stroke-dasharray:none;stroke-dashoffset:0;stroke-opacity:1" />
      <g
         style="fill:#00bfff;fill-opacity:1"
         transform="matrix(0.66769871,0,0,0.66769871,-277.46173,85.85022)"
         id="g3777">
        <path
           style="fill:#7bb7fa;fill-opacity:1"
           d="m 458.04385,284.44702 c -1.02982,-0.86346 -2.16492,-2.55096 -2.52248,-3.75 -0.96016,-3.21986 0.15451,-86.63003 1.20849,-90.43007 l 0.90141,-3.25 -5.83326,0 c -3.47128,0 -6.96169,-0.6627 -8.62004,-1.63662 -2.4083,-1.41435 -2.71143,-2.26319 -2.23208,-6.25 0.70887,-5.89564 5.171,-13.78722 8.97842,-15.87896 1.65713,-0.9104 6.67042,-1.86763 11.41225,-2.17904 8.37481,-0.54999 8.47145,-0.58933 9.963,-4.05538 0.8284,-1.925 5.46431,-12.725 10.30202,-24 4.83771,-11.275 9.90264,-22.3 11.25539,-24.5 7.35234,-11.957311 26.79154,-18.968541 59.66178,-21.518481 20.95488,-1.625599 75.40506,-0.78982 90.29969,1.38605 19.98005,2.91876 32.77852,7.43296 39.63366,13.979351 3.74956,3.58067 6.2055,8.5016 19.04147,38.15308 4.28565,9.9 8.33267,18.5625 8.99336,19.25 0.70862,0.73737 4.00374,1.25 8.03478,1.25 5.09284,0 7.86581,0.5735 10.88603,2.25145 4.55754,2.53203 9.34482,9.78066 10.21509,15.46711 0.86851,5.67515 -1.48298,7.6325 -9.92546,8.26181 -6.204,0.46246 -6.91345,0.73969 -6.44784,2.51963 0.28775,1.1 0.70617,22.42483 0.92983,47.38852 0.37132,41.44598 0.23212,45.55021 -1.60253,47.25 -1.84239,1.70696 -4.16932,1.86148 -28.03211,1.86148 l -26.02294,0 -1.81961,-2.95034 c -1.1821,-1.91667 -1.81961,-5.7277 -1.81961,-10.87756 0,-5.46909 -0.50366,-8.27768 -1.62423,-9.05745 -1.17749,-0.81937 -21.598,-1.05934 -74.24279,-0.87245 l -72.61856,0.2578 -0.29159,7 c -0.39267,9.42676 -1.24127,13.14238 -3.41842,14.96785 -2.75431,2.30939 -51.88427,2.27542 -54.64312,-0.0378 z m 68.3058,-61.3471 c 3.21534,-1.44283 4.46936,-5.48744 2.70693,-8.73071 -2.57544,-4.73941 -36.11745,-16.35226 -47.23111,-16.35226 -8.79022,0 -11.34573,2.63543 -11.34573,11.7006 0,3.53699 0.55261,7.29664 1.22803,8.35479 1.79845,2.81762 7.52652,4.96719 15.8695,5.95535 9.65874,1.144 35.5353,0.52481 38.77238,-0.92777 z m 173.18399,-0.0583 c 7.89697,-1.88244 9.47717,-4.06063 9.47717,-13.06366 0,-6.62771 -0.39949,-8.296 -2.38531,-9.96104 -5.35451,-4.48957 -21.13518,-1.58069 -44.72458,8.24417 -9.52572,3.96742 -11.33022,5.44672 -11.33022,9.28837 0,4.04465 2.35227,5.70554 9.37842,6.62193 7.19709,0.93868 34.13217,0.16993 39.58452,-1.12977 z M 650.5707,170.61854 c 18.76779,-2.41387 31.96955,-4.73881 34.00916,-5.9893 1.60763,-0.98563 1.39968,-2.37274 -1.77842,-11.86265 -5.28096,-15.76917 -14.39569,-35.88651 -17.40115,-38.40648 -3.13809,-2.63118 -11.45971,-4.8248 -26.75615,-7.05305 -15.05322,-2.19283 -79.84812,-2.46871 -96.00875,-0.40878 -15.0981,1.92449 -24.56041,4.55213 -28.24547,7.84363 -3.28664,2.93566 -10.30145,18.00108 -16.412,35.24735 -4.60625,13.00061 -4.64837,14.8001 -0.36526,15.60889 1.80389,0.34063 5.15823,1.00427 7.45409,1.47476 6.36849,1.30508 19.40432,2.99449 34.58701,4.48239 19.54088,1.91499 93.60813,1.28945 110.91694,-0.93676 z"
           id="path2989"
           inkscape:connector-curvature="0" />
        <g
           id="g2997"
           transform="matrix(1.2051777,0,0,1.1625847,493.56363,10.764011)"
           style="fill:#7bb7fa;fill-opacity:1">
          <path
             id="path2999"
             d="M 15.732283,54.531496 C 6.3779527,54.141733 4.1102362,53.468504 1.6653543,50.208662 0.10629921,48.188977 0,46.629922 0,27.070866 L 0,6.0944882 2.6220472,3.6850394 C 4.2165354,2.2677166 6.5905511,0.99212599 8.5748031,0.56692914 10.700787,0.10629921 23.137795,-0.07086614 42.909448,0.03543307 72.708661,0.2480315 74.019684,0.28346457 76.287401,1.6653543 c 1.27559,0.7440945 3.11811,2.2322835 4.110236,3.2598426 1.665354,1.8425197 1.73622,2.7637795 1.73622,22.6417321 0,19.84252 -0.07087,20.799213 -1.73622,22.6063 -4.181102,4.464567 -3.507874,4.358267 -31.03937,4.535433 -13.818897,0.07087 -28.913385,0 -33.625984,-0.177166 z M 27.318897,43.122048 C 28.488189,40.606299 27.992126,11.834646 26.716535,10.84252 25.653543,9.956693 16.228346,9.6023623 14.669291,10.38189 c -1.488189,0.744094 -1.523622,32.562992 -0.03543,33.767717 0.602362,0.46063 3.366142,0.81496 6.413386,0.81496 5.066929,0 5.42126,-0.106299 6.271653,-1.842519 z m 54.779527,-3.826772 c -0.248031,-0.46063 -0.779527,-6.094488 -0.177165,-12.437008 l 0.212598,-11.586614 40.181103,-0.177166 40.14567,-0.177165 2.40945,1.629921 2.40945,1.665355 0,9.35433 0,9.318898 -2.40945,1.665354 c -1.84252,1.240158 -3.36614,1.629922 -6.59055,1.629922 l -4.21654,0 -3.75591,-4.712599 c -7.44094,-9.283464 -12.7559,-9.885827 -18.21259,-0.07087 l -3.33071,4.464567 -4.5,0 -4.46457,0 -3.33071,-4.464567 c -6.90945,-9.212598 -12.11811,-9.814961 -18.212596,0.07087 l -3.755905,4.712599 -5.988189,0 c -4.110236,0 -6.129921,-0.283465 -6.413386,-0.885827 z"
             style="fill:#7bb7fa;fill-opacity:1;fill-rule:nonzero;stroke:none"
             inkscape:connector-curvature="0" />
        </g>
      </g>
    </g>
  </g>
</svg>
